<svg xmlns="http://www.w3.org/2000/svg" viewBox="0 0 64 64">
  <defs>
    <linearGradient id="g" x1="0" y1="0" x2="1" y2="1">
      <stop offset="0" stop-color="#e6b33f"/>
      <stop offset="1" stop-color="#b38026"/>
    </linearGradient>
  </defs>
  <rect width="64" height="64" rx="12" fill="#050401"/>
  <path
    d="M17 44c0-7 5-10 13-12 7-2 10-4 10-8 0-4-3-6-8-6-5 0-8 2-10 6l-6-3c3-6 8-9 16-9 10 0 16 5 16 13 0 8-5 11-14 13-6 2-9 3-9 7 0 3 3 5 8 5 6 0 9-2 11-6l6 3c-3 6-9 9-17 9-10 0-16-4-16-12z"
    fill="url(#g)"
    transform="matrix(0.704 0 0 -0.704 9.472 54.528)"
  />
</svg>
